<svg xmlns="http://www.w3.org/2000/svg" viewBox="0 0 256 256" role="img" aria-label="Koi app icon">
  <defs>
    <linearGradient id="bg" x1="0" x2="1" y1="0" y2="1">
      <stop offset="0%" stop-color="#1f6fa8"/>
      <stop offset="100%" stop-color="#123b5d"/>
    </linearGradient>
  </defs>
  <rect width="256" height="256" rx="52" fill="url(#bg)"/>
  <ellipse cx="128" cy="152" rx="84" ry="62" fill="#f4f9ff" opacity="0.12"/>
  <path d="M54 148c0-38 29-66 74-66 40 0 74 29 74 68 0 24-17 46-43 57 8 7 12 17 12 28h-30c0-12-5-22-14-30-10 7-19 16-28 24-8-8-18-17-27-24-9 8-14 18-14 30H53c0-11 5-21 12-28-26-11-43-33-43-57z" fill="#f6f8fa"/>
  <path d="M76 126c0-20 17-36 37-36s37 16 37 36-17 36-37 36-37-16-37-36z" fill="#f1d9b2"/>
  <path d="M90 126c0-14 12-25 27-25 9 0 18 4 24 12-9 10-16 21-21 33-8-4-17-9-30-20z" fill="#ffc7a8" opacity="0.9"/>
  <path d="M141 110c18 0 35 7 47 20-2 6-7 11-12 14-11-12-25-19-42-19-15 0-29 5-40 15-5-3-10-8-12-14 12-12 28-16 59-16z" fill="#ffb2b2" opacity="0.9"/>
  <path d="M164 96c8-9 18-13 28-13 11 0 22 6 30 18-7 2-14 6-21 12-8-7-18-11-37-17z" fill="#ffcd7a"/>
  <path d="M74 177c11-14 26-21 42-21 23 0 38 9 49 21-11 16-31 26-56 26-16 0-30-6-35-26z" fill="#6eb1d9" opacity="0.95"/>
  <circle cx="110" cy="104" r="4" fill="#1b2d3d"/>
  <circle cx="136" cy="104" r="4" fill="#1b2d3d"/>
  <path d="M111 117c8 8 26 8 34 0" fill="none" stroke="#1b2d3d" stroke-width="4" stroke-linecap="round"/>
  <path d="M58 164c6 6 12 8 20 8" fill="none" stroke="#79bfd9" stroke-width="8" stroke-linecap="round"/>
  <path d="M192 164c-6 6-12 8-20 8" fill="none" stroke="#79bfd9" stroke-width="8" stroke-linecap="round"/>
</svg>
